<svg width="20" height="21" viewBox="0 0 20 21" fill="none" xmlns="http://www.w3.org/2000/svg">
<g clip-path="url(#clip0_12_2918)">
<path fill-rule="evenodd" clip-rule="evenodd" d="M19.6 10.6331C19.6 9.92401 19.5364 9.24219 19.4182 8.58765H10V12.4558H15.3818C15.15 13.7058 14.4455 14.7649 13.3864 15.474V17.9831H16.6182C18.5091 16.2422 19.6 13.6786 19.6 10.6331Z" fill="#4285F4"/>
<path fill-rule="evenodd" clip-rule="evenodd" d="M10 20.4057C12.7 20.4057 14.9637 19.5102 16.6182 17.9829L13.3864 15.4738C12.4909 16.0738 11.3455 16.4284 10 16.4284C7.39548 16.4284 5.19093 14.6693 4.40457 12.3057H1.06366V14.8966C2.70911 18.1648 6.09093 20.4057 10 20.4057Z" fill="#34A853"/>
<path fill-rule="evenodd" clip-rule="evenodd" d="M4.40455 12.3057C4.20455 11.7057 4.09091 11.0648 4.09091 10.4057C4.09091 9.74661 4.20455 9.1057 4.40455 8.5057V5.91479H1.06364C0.386364 7.2648 0 8.79207 0 10.4057C0 12.0193 0.386364 13.5466 1.06364 14.8966L4.40455 12.3057Z" fill="#FBBC05"/>
<path fill-rule="evenodd" clip-rule="evenodd" d="M10 4.38303C11.4682 4.38303 12.7864 4.88758 13.8227 5.87849L16.6909 3.01031C14.9591 1.39667 12.6955 0.405762 10 0.405762C6.09093 0.405762 2.70911 2.64667 1.06366 5.91485L4.40457 8.50576C5.19093 6.14213 7.39548 4.38303 10 4.38303Z" fill="#EA4335"/>
</g>
<defs>
<clipPath id="clip0_12_2918">
<rect width="20" height="20" fill="white" transform="translate(0 0.405762)"/>
</clipPath>
</defs>
</svg>
